<svg font-size="24" width="1em" height="1em" viewBox="0 0 22 22" fill="none" xmlns="http://www.w3.org/2000/svg"><path d="M9.90661 10.8953C11.7319 10.8953 13.2117 9.41554 13.2117 7.59021C13.2117 5.76488 11.7319 4.28516 9.90661 4.28516C8.08128 4.28516 6.60156 5.76488 6.60156 7.59021C6.60156 9.41554 8.08128 10.8953 9.90661 10.8953Z" stroke="currentColor" stroke-width="1.2" stroke-linecap="round" stroke-linejoin="round"></path><path d="M4.67578 16.0858V15.6801C4.67578 13.0369 6.81816 10.8945 9.46136 10.8945H10.1138C12.757 10.8945 14.8994 13.0369 14.8994 15.6801V16.0858" stroke="currentColor" stroke-width="1.2" stroke-linecap="round" stroke-linejoin="round"></path><path d="M9.70968 17.7742C14.5199 17.7742 18.4194 14.0192 18.4194 9.3871C18.4194 4.75503 14.5199 1 9.70968 1C4.89946 1 1 4.75503 1 9.3871C1 14.0192 4.89946 17.7742 9.70968 17.7742Z" stroke="currentColor" stroke-width="1.2" stroke-linecap="round" stroke-linejoin="round"></path><path d="M21.0011 20.9992L15.8398 15.8379" stroke="currentColor" stroke-width="1.2" stroke-linecap="round" stroke-linejoin="round"></path></svg>