<svg font-size="24" width="1em" height="1em" viewBox="0 0 18 22" fill="none" xmlns="http://www.w3.org/2000/svg"><path d="M16.5 8.46287V8.48806C16.5 8.58671 16.4979 8.68327 16.4926 8.77982V8.79031C16.5 9.63636 15.6216 14.0776 8.99842 21C2.42794 14.1301 1.5 10.0909 1.50738 8.8176C1.50738 8.8092 1.50527 8.79976 1.50527 8.78926C1.50316 8.68222 1.5 8.38397 1.5 8.27273C1.5 4.15141 4.85747 1 8.99842 1C13.1394 1 16.4989 4.3426 16.4989 8.46392L16.5 8.46287Z" stroke="currentColor" stroke-width="1.2" stroke-linecap="round" stroke-linejoin="round"></path><path d="M8.99839 11.9086C10.704 11.9086 12.0866 10.484 12.0866 8.72674C12.0866 6.96947 10.704 5.54492 8.99839 5.54492C7.29281 5.54492 5.91016 6.96947 5.91016 8.72674C5.91016 10.484 7.29281 11.9086 8.99839 11.9086Z" stroke="currentColor" stroke-width="1.2" stroke-linecap="round" stroke-linejoin="round"></path></svg>