<svg width="1em" height="1em" viewBox="0 0 24 24" fill="none" xmlns="http://www.w3.org/2000/svg" style="font-size: 24px;"><path d="M4.22266 13.8682V9.90212C4.22266 5.55569 7.72295 2 12.001 2C16.279 2 19.7782 5.55569 19.7782 9.90316V14.314C19.7782 17.6432 17.0197 20.0258 13.8188 20.3333" stroke="currentColor" stroke-width="1.2" stroke-linecap="round" stroke-linejoin="round"></path><path d="M4.22222 8.66714V14.7771C2.99568 14.7771 2 13.6729 2 12.3126V11.1305C2 9.77026 2.99568 8.66602 4.22222 8.66602V8.66714Z" stroke="currentColor" stroke-width="1.2" stroke-linecap="round" stroke-linejoin="round"></path><path d="M19.7778 14.7762V8.66623C21.0043 8.66623 22 9.77047 22 11.1308V12.3128C22 13.6731 21.0043 14.7773 19.7778 14.7773V14.7762Z" stroke="currentColor" stroke-width="1.2" stroke-linecap="round" stroke-linejoin="round"></path><path d="M12.2964 19.2227H10.5933C9.83633 19.2227 9.22266 19.8342 9.22266 20.5886V20.6345C9.22266 21.3889 9.83633 22.0004 10.5933 22.0004H12.2964C13.0534 22.0004 13.6671 21.3889 13.6671 20.6345V20.5886C13.6671 19.8342 13.0534 19.2227 12.2964 19.2227Z" stroke="currentColor" stroke-width="1.2" stroke-linecap="round" stroke-linejoin="round"></path></svg>