<svg font-size="24" width="1em" height="1em" viewBox="0 0 20 18" fill="none" xmlns="http://www.w3.org/2000/svg"><path fill-rule="evenodd" clip-rule="evenodd" d="M4.8261 12.9056C3.68345 12.9056 2.75714 13.8179 2.75714 14.9433C2.75714 16.0688 3.68345 16.9811 4.8261 16.9811C5.96876 16.9811 6.89507 16.0688 6.89507 14.9433C6.89507 13.8179 5.96876 12.9056 4.8261 12.9056ZM1.72266 14.9433C1.72266 13.2552 3.11212 11.8867 4.8261 11.8867C6.54009 11.8867 7.92955 13.2552 7.92955 14.9433C7.92955 16.6315 6.54009 18 4.8261 18C3.11212 18 1.72266 16.6315 1.72266 14.9433Z" fill="currentColor"></path><path fill-rule="evenodd" clip-rule="evenodd" d="M14.3105 12.9056C13.1678 12.9056 12.2415 13.8179 12.2415 14.9433C12.2415 16.0688 13.1678 16.9811 14.3105 16.9811C15.4531 16.9811 16.3794 16.0688 16.3794 14.9433C16.3794 13.8179 15.4531 12.9056 14.3105 12.9056ZM11.207 14.9433C11.207 13.2552 12.5965 11.8867 14.3105 11.8867C16.0245 11.8867 17.4139 13.2552 17.4139 14.9433C17.4139 16.6315 16.0245 18 14.3105 18C12.5965 18 11.207 16.6315 11.207 14.9433Z" fill="currentColor"></path><path fill-rule="evenodd" clip-rule="evenodd" d="M1.37931 1.01887C1.18887 1.01887 1.03448 1.17093 1.03448 1.3585V13.2453C1.03448 13.4328 1.18887 13.5849 1.37931 13.5849H2.24138C2.52704 13.5849 2.75862 13.813 2.75862 14.0943C2.75862 14.3757 2.52704 14.6038 2.24138 14.6038H1.37931C0.617538 14.6038 0 13.9955 0 13.2453V1.3585C0 0.608221 0.617538 0 1.37931 0H10C10.7618 0 11.3793 0.60822 11.3793 1.3585V5.6038C11.3793 5.88516 11.1477 6.11324 10.8621 6.11324C10.5764 6.11324 10.3448 5.88516 10.3448 5.6038V1.3585C10.3448 1.17093 10.1904 1.01887 10 1.01887H1.37931Z" fill="currentColor"></path><path fill-rule="evenodd" clip-rule="evenodd" d="M6.89844 14.0934C6.89844 13.8121 7.13001 13.584 7.41568 13.584H11.726C12.0117 13.584 12.2433 13.8121 12.2433 14.0934C12.2433 14.3748 12.0117 14.6029 11.726 14.6029H7.41568C7.13001 14.6029 6.89844 14.3748 6.89844 14.0934Z" fill="currentColor"></path><path fill-rule="evenodd" clip-rule="evenodd" d="M10.3438 4.75498C10.3438 4.0047 10.9613 3.39648 11.7231 3.39648H16.4074C16.8919 3.39648 17.3409 3.64685 17.5901 4.05604L19.9252 7.88912C19.9734 7.9683 19.9989 8.05889 19.9989 8.15123V13.2456C19.9989 13.9959 19.3814 14.6041 18.6196 14.6041H16.8955C16.6098 14.6041 16.3782 14.376 16.3782 14.0947C16.3782 13.8133 16.6098 13.5852 16.8955 13.5852H18.6196C18.8101 13.5852 18.9644 13.4332 18.9644 13.2456V8.29233L16.7031 4.58025C16.6407 4.47795 16.5285 4.41536 16.4074 4.41536H11.7231C11.5326 4.41536 11.3782 4.56741 11.3782 4.75498V14.0947C11.3782 14.376 11.1467 14.6041 10.861 14.6041C10.5753 14.6041 10.3438 14.376 10.3438 14.0947V4.75498Z" fill="currentColor"></path><path fill-rule="evenodd" clip-rule="evenodd" d="M12.0703 5.60319C12.0703 5.32183 12.3019 5.09375 12.5876 5.09375H15.6048C15.7904 5.09375 15.9618 5.19171 16.0539 5.35044L17.778 8.32215C17.8695 8.47982 17.8688 8.67353 17.7763 8.8306C17.6838 8.98767 17.5133 9.08434 17.3289 9.08434H12.5876C12.3019 9.08434 12.0703 8.85625 12.0703 8.5749V5.60319ZM13.1048 6.11262V8.06546H16.4376L15.3046 6.11262H13.1048Z" fill="currentColor"></path></svg>