<svg width="24" height="24" viewBox="0 0 24 24" fill="none" xmlns="http://www.w3.org/2000/svg"><path d="M8.26987 10.0076C8.95819 11.5094 10.7895 14.5887 14.5963 15.7611C15.0678 15.9063 15.5825 15.7947 15.9319 15.4464C16.2277 15.1507 16.6002 14.7739 16.9381 14.4298C17.4475 13.911 18.2821 13.9078 18.7968 14.4224L21.6164 17.2418C22.1279 17.7532 22.1279 18.5815 21.6164 19.0929L19.3356 21.3735C18.7578 21.9512 17.9043 22.1512 17.1328 21.8818C13.8164 20.7231 5.06402 16.7966 2.09181 6.85363C1.86658 6.10117 2.06129 5.28452 2.6149 4.7278C3.30532 4.03533 4.27466 3.07555 4.98298 2.37677C5.49553 1.87162 6.31752 1.87478 6.82692 2.38413L9.84122 5.39818C10.3527 5.90964 10.3527 6.73787 9.84122 7.24933L8.53931 8.55114C8.15515 8.93526 8.04254 9.51513 8.26882 10.0087L8.26987 10.0076Z" stroke="currentColor" stroke-width="1.4" stroke-linecap="round" stroke-linejoin="round"></path></svg>